<svg width="871" height="89" viewBox="0 0 871 89" fill="none" xmlns="http://www.w3.org/2000/svg">
<g clip-path="url(#clip0)">
<path d="M228.716 88.814H216.14V41.5438L196.379 88.814H188.968L169.207 41.5438V88.814H156.632V21.221C156.632 19.6491 157.193 18.3017 158.204 17.2912C159.326 16.1684 160.561 15.7193 162.021 15.7193H168.084C170.554 15.7193 172.239 16.8421 173.137 19.2L192.561 65.9088L212.098 19.0877C212.997 16.7298 214.793 15.607 217.151 15.607H223.214C224.674 15.607 226.021 16.1684 227.032 17.1789C228.154 18.3017 228.604 19.5368 228.604 21.1087V88.814H228.716ZM192.674 73.3193L214.793 20.2105C215.242 19.0877 216.028 18.6386 217.263 18.6386H223.326C224.112 18.6386 224.674 18.8631 225.235 19.4245C225.797 19.9859 226.021 20.5473 226.021 21.3333V86.007H219.06V27.7333H218.835L194.582 85.8947H190.877L166.512 27.7333H166.4V85.8947H159.439V21.221C159.439 20.4351 159.663 19.8737 160.225 19.3123C160.786 18.7509 161.347 18.5263 162.133 18.5263H168.197C169.432 18.5263 170.218 19.0877 170.667 20.0982L192.674 73.3193ZM221.867 82.9754H222.99V21.4456H217.263L192.674 80.8421L167.972 21.5579H162.246V83.0877H163.368V24.814H168.309L192.561 82.8631L216.702 24.814H221.642V82.9754H221.867Z" fill="white"/>
<path d="M309.895 88.814H300.912C299.34 88.814 297.768 88.3649 296.421 87.4666C295.074 86.5684 294.063 85.3333 293.502 83.8737L288.112 71.1859H257.572L252.295 83.8737C251.733 85.3333 250.723 86.5684 249.263 87.4666C247.916 88.3649 246.344 88.814 244.772 88.814H235.902L267.565 15.607H278.007L309.895 88.814ZM244.772 85.8947H240.281L269.586 18.6386H276.211L305.628 85.8947H301.025C298.667 85.8947 297.095 84.8842 296.196 82.7508L290.133 68.2666H255.663L249.712 82.7508C248.814 84.7719 247.242 85.8947 244.772 85.8947ZM253.754 65.3474H292.042L298.891 81.628C299.34 82.5263 300.014 83.0877 301.025 83.0877H301.249L274.414 21.5579H273.853L291.705 64.8982H253.867L271.832 21.5579H271.27L244.772 82.9754H244.884C245.895 82.9754 246.568 82.5263 247.018 81.5158L253.754 65.3474ZM258.246 61.9789H287.439L272.954 26.4982L258.246 61.9789ZM262.625 59.0596H283.284L273.067 34.021L262.625 59.0596Z" fill="white"/>
<path d="M381.979 88.814H365.923L346.947 60.5193L327.86 88.814H312.365L338.863 50.5263L314.049 15.7193H330.33L347.172 40.5333L364.576 15.7193H380.07L355.144 50.5263L381.979 88.814ZM347.284 45.586L366.035 18.6386H374.681L351.775 50.5263L376.477 85.8947H367.383L346.947 55.3544L326.288 85.7825H317.754L342.344 50.5263L319.551 18.6386H328.758L347.284 45.586ZM368.954 82.9754H370.976L348.183 50.414L368.954 21.3333H367.383L347.284 50.5263L327.411 21.4456H325.277L345.937 50.5263L323.256 83.0877H324.828L346.947 50.1895L368.954 82.9754Z" fill="white"/>
<path d="M441.937 88.814H431.495C428.351 88.814 425.993 87.4666 424.533 84.7719L408.365 57.4877H401.403V88.814H388.94V15.607H412.519C419.93 15.607 425.881 17.2912 430.372 20.6596C435.088 24.2526 437.446 29.5298 437.446 36.4912C437.446 41.8807 435.761 46.4842 432.281 50.1895C429.811 52.9965 426.33 55.0175 422.063 56.028L441.937 88.814ZM398.596 85.8947H391.747V18.6386H412.519C419.256 18.6386 424.646 20.0982 428.688 23.1298C432.73 26.1614 434.639 30.6526 434.639 36.6035C434.639 41.0947 433.179 45.0245 430.147 48.393C427.228 51.6491 422.961 53.5579 417.46 54.007L436.772 85.8947H431.495C429.361 85.8947 427.902 84.9965 426.891 83.3123L410.049 54.5684H398.596V85.8947ZM395.677 51.7614H411.621L429.249 81.9649C429.698 82.7509 430.372 83.0877 431.382 83.0877H431.607L412.519 51.5368L417.123 51.0877C421.951 50.6386 425.544 49.1789 428.126 46.3719C430.596 43.6772 431.832 40.421 431.832 36.4912C431.832 31.4386 430.26 27.621 427.003 25.2631C423.523 22.6807 418.695 21.4456 412.632 21.4456H394.779V82.9754H395.902V51.7614H395.677ZM410.723 51.2H395.677V22.007H410.723C414.203 22.007 417.01 22.3438 419.256 23.0175C421.614 23.6912 423.747 24.7017 425.432 26.1614C427.116 27.621 428.351 29.3052 429.025 30.9895C429.698 32.5614 430.035 34.4702 430.035 36.6035C430.035 38.7368 429.698 40.5333 429.025 42.2175C428.239 44.014 427.003 45.6982 425.319 47.0456C423.86 48.2807 421.839 49.4035 419.256 50.0772C416.786 50.8631 413.979 51.2 410.723 51.2ZM398.596 48.393H410.835C413.642 48.393 416.225 48.0561 418.582 47.3824C420.716 46.821 422.4 45.9228 423.635 44.9123C424.87 43.7895 425.881 42.5544 426.442 41.207C427.003 39.9719 427.228 38.4 427.228 36.6035C427.228 34.807 427.003 33.3473 426.442 32C425.881 30.7649 424.982 29.4175 423.635 28.2947C422.512 27.1719 420.828 26.3859 418.582 25.7123C416.449 25.1509 413.867 24.814 410.835 24.814H398.596V48.393ZM401.403 45.4737H410.723C413.418 45.4737 415.663 45.2491 417.684 44.6877C419.481 44.1263 420.828 43.4526 421.726 42.7789C422.625 42.1052 423.298 41.207 423.635 40.1965C424.084 38.9614 424.309 37.7263 424.309 36.6035C424.309 35.593 424.084 34.4702 423.635 33.1228C423.186 32.2245 422.625 31.3263 421.726 30.428C420.828 29.5298 419.481 28.8561 417.796 28.407C416.112 27.9579 413.754 27.7333 410.835 27.7333H401.516V45.4737H401.403Z" fill="white"/>
<path d="M452.042 88.814V15.607H500.772L498.077 22.4561C497.516 24.028 496.505 25.2631 495.046 26.2737C493.698 27.2842 492.126 27.7333 490.442 27.7333H464.393V44.9123H496.954V56.9263H464.393V76.6877H490.667C494.147 76.6877 496.618 78.3719 498.077 81.628L500.996 88.5895L452.042 88.814ZM461.586 79.7193H490.667C493.025 79.7193 494.596 80.7298 495.495 82.8631L496.842 85.8947H454.849V18.6386H496.618L495.495 21.4456C494.596 23.6912 492.912 24.814 490.554 24.814H461.698V47.7193H494.26V54.007H461.698V79.7193H461.586ZM457.656 21.4456V82.9754H492.126C491.677 82.6386 491.228 82.414 490.667 82.414H458.779V51.2H491.34V50.6386H458.779V22.007H490.442C491.003 22.007 491.453 21.8947 492.014 21.4456H457.656Z" fill="white"/>
<path d="M584.197 88.814H571.958L556.912 38.0631L542.091 88.814H529.853L508.295 15.607H521.881L536.028 66.1333L550.849 15.607H563.312L578.021 66.021L592.056 15.607H605.642L584.197 88.814ZM535.804 76.2386H536.028L552.983 18.6386H561.067L578.021 76.2386H578.246L594.19 18.6386H601.825L581.951 85.8947H573.979L557.025 28.2947H556.8L539.958 85.8947H531.986L512 18.6386H519.635L535.804 76.2386ZM576.112 82.9754H579.818L598.007 21.4456H596.435L580.379 79.0456H575.888L558.933 21.4456H555.116L538.161 79.0456H533.67L517.502 21.4456H515.93L534.119 82.9754H537.825L554.667 25.3754H559.158L576.112 82.9754Z" fill="white"/>
<path d="M677.053 88.814H668.07C666.498 88.814 664.926 88.3649 663.579 87.4666C662.232 86.5684 661.221 85.3333 660.66 83.8737L655.27 71.1859H624.73L619.453 83.8737C618.891 85.3333 617.881 86.5684 616.421 87.4666C615.074 88.3649 613.502 88.814 611.93 88.814H603.06L634.723 15.607H645.165L677.053 88.814ZM611.93 85.8947H607.439L636.744 18.6386H643.368L672.786 85.8947H668.07C665.712 85.8947 664.14 84.8842 663.242 82.7508L657.179 68.2666H622.709L616.758 82.7508C615.86 84.7719 614.288 85.8947 611.93 85.8947ZM620.8 65.3474H659.088L665.937 81.628C666.386 82.5263 667.06 83.0877 668.07 83.0877H668.295L641.46 21.5579H640.898L658.751 64.8982H620.912L638.877 21.5579H638.316L611.593 83.0877H611.705C612.716 83.0877 613.389 82.6386 613.839 81.628L620.8 65.3474ZM625.291 61.9789H654.596L640 26.4982L625.291 61.9789ZM629.67 59.0596H650.33L640 34.021L629.67 59.0596Z" fill="white"/>
<path d="M738.695 88.814H728.253C725.109 88.814 722.751 87.4666 721.291 84.7719L705.123 57.4877H698.161V88.814H685.698V15.607H709.277C716.688 15.607 722.639 17.2912 727.13 20.6596C731.846 24.2526 734.204 29.5298 734.204 36.4912C734.204 41.8807 732.519 46.4842 729.039 50.1895C726.568 52.9965 723.088 55.0175 718.821 56.028L738.695 88.814ZM695.354 85.8947H688.505V18.6386H709.277C716.014 18.6386 721.403 20.0982 725.446 23.1298C729.488 26.1614 731.397 30.6526 731.397 36.6035C731.397 41.0947 729.937 45.0245 726.905 48.393C723.986 51.6491 719.719 53.5579 714.218 54.007L733.53 85.8947H728.253C726.119 85.8947 724.66 84.9965 723.649 83.3123L706.807 54.5684H695.354V85.8947ZM692.435 51.7614H708.379L726.007 81.9649C726.456 82.7509 727.13 83.0877 728.14 83.0877H728.365L709.277 51.5368L713.881 51.0877C718.709 50.6386 722.302 49.1789 724.884 46.3719C727.354 43.6772 728.589 40.421 728.589 36.4912C728.589 31.4386 727.018 27.621 723.761 25.2631C720.281 22.6807 715.453 21.4456 709.389 21.4456H691.537V82.9754H692.66V51.7614H692.435ZM707.481 51.2H692.435V22.007H707.481C710.961 22.007 713.768 22.3438 716.014 23.0175C718.372 23.6912 720.505 24.7017 722.189 26.1614C723.874 27.621 725.109 29.3052 725.782 30.9895C726.456 32.5614 726.793 34.4702 726.793 36.6035C726.793 38.7368 726.456 40.5333 725.782 42.2175C724.997 44.014 723.761 45.6982 722.077 47.0456C720.618 48.2807 718.596 49.4035 716.014 50.0772C713.656 50.8631 710.737 51.2 707.481 51.2ZM695.354 48.393H707.593C710.4 48.393 712.982 48.0561 715.34 47.3824C717.474 46.821 719.158 45.9228 720.393 44.9123C721.628 43.7895 722.639 42.5544 723.2 41.207C723.761 39.9719 723.986 38.4 723.986 36.6035C723.986 34.807 723.761 33.3473 723.2 32C722.639 30.7649 721.74 29.4175 720.393 28.2947C719.27 27.1719 717.586 26.3859 715.34 25.7123C713.207 25.1509 710.625 24.814 707.593 24.814H695.354V48.393ZM698.161 45.4737H707.481C710.175 45.4737 712.421 45.2491 714.442 44.6877C716.239 44.1263 717.586 43.4526 718.484 42.7789C719.382 42.1052 720.056 41.207 720.393 40.1965C720.842 38.9614 721.067 37.7263 721.067 36.6035C721.067 35.593 720.842 34.4702 720.393 33.1228C719.944 32.2245 719.382 31.3263 718.484 30.428C717.586 29.5298 716.239 28.8561 714.554 28.407C712.87 27.9579 710.512 27.7333 707.593 27.7333H698.274L698.161 45.4737Z" fill="white"/>
<path d="M773.277 88.814H748.126V15.607H773.277C777.768 15.607 782.26 16.393 786.751 17.9649C791.354 19.5368 795.509 21.7824 798.989 24.814C802.695 27.9579 805.726 31.7754 807.972 36.2666C810.217 40.9824 811.453 46.3719 811.453 52.2105C811.453 58.1614 810.33 63.5509 807.972 68.2666C805.839 72.6456 802.807 76.4631 798.989 79.607C795.284 82.7509 791.13 84.9965 786.751 86.5684C782.372 88.028 777.881 88.814 773.277 88.814ZM750.933 18.6386H773.277C777.656 18.6386 781.811 19.3123 785.853 20.6596C790.119 22.1193 793.937 24.2526 797.193 27.0596C800.561 29.8666 803.368 33.3473 805.389 37.5017C807.523 41.6561 808.533 46.5965 808.533 52.2105C808.533 57.9368 807.523 62.7649 805.389 66.9193C803.256 71.0737 800.449 74.6666 797.193 77.4737C794.049 80.1684 790.232 82.3017 785.853 83.7614C781.811 85.1087 777.544 85.7824 773.277 85.7824H750.933V18.6386ZM753.74 82.9754H773.277C777.319 82.9754 781.137 82.3017 784.954 81.0666C788.772 79.8316 792.253 77.8105 795.396 75.228C798.428 72.7579 800.898 69.5017 802.919 65.6842C804.828 61.9789 805.726 57.4877 805.726 52.2105C805.726 47.0456 804.828 42.5544 802.919 38.8491C800.898 35.0316 798.428 31.7754 795.396 29.193C792.253 26.6105 788.772 24.7017 784.954 23.3544C781.137 22.1193 777.319 21.4456 773.277 21.4456H753.74V82.9754ZM771.032 82.5263H754.863V22.007H771.032C776.758 22.007 781.586 22.9052 785.516 24.5895C789.67 26.2737 793.151 28.6316 795.846 31.5509C798.653 34.5824 800.786 37.8386 802.021 41.3193C803.256 44.8 803.93 48.5052 803.93 52.4351C803.93 56.3649 803.256 60.0701 802.021 63.5508C800.786 67.2561 798.653 70.5123 795.846 73.4316C793.151 76.2386 789.67 78.4842 785.516 80.2807C781.586 81.628 776.758 82.5263 771.032 82.5263ZM757.67 79.7193H771.032C776.084 79.7193 780.575 78.9333 784.393 77.3614C788.098 75.9017 791.242 73.7684 793.825 71.1859C796.182 68.828 797.979 65.9087 799.326 62.428C800.561 59.1719 801.123 55.8035 801.123 52.3228C801.123 48.8421 800.561 45.3614 799.326 42.2175C798.091 38.7368 796.182 35.8175 793.825 33.4596C791.13 30.7649 787.986 28.7438 784.393 27.2842C780.575 25.7123 776.084 24.9263 771.032 24.9263H757.67V79.7193ZM760.59 76.6877H771.032C775.86 76.6877 780.014 76.014 783.27 74.6666C786.639 73.207 789.446 71.4105 791.691 69.0526C794.049 66.807 795.621 64.2245 796.632 61.3052C797.754 58.4982 798.203 55.4666 798.203 52.2105C798.203 48.9544 797.642 45.9228 796.632 43.1158C795.621 40.3088 793.937 37.7263 791.691 35.3684C789.333 33.1228 786.526 31.214 783.27 29.7544C779.902 28.407 775.86 27.7333 771.032 27.7333H760.59V76.6877Z" fill="white"/>
<path d="M845.923 88.814C841.432 88.814 837.277 88.0281 833.347 86.3439C829.193 84.6597 825.712 81.8526 822.905 78.0351L821.221 75.7895L825.712 72.5333C827.284 71.4105 828.969 70.9614 830.877 71.0737C832.786 71.186 834.47 71.9719 835.818 73.3193C836.491 74.1053 837.502 74.7789 838.625 75.4526C840.646 76.6877 843.228 77.2491 846.147 77.2491C847.495 77.2491 848.954 77.0246 850.302 76.6877C851.537 76.3509 852.772 75.6772 854.007 74.7789C855.018 74.1053 855.916 73.0947 856.59 71.7474C857.151 70.6246 857.488 69.3895 857.488 68.0421C857.488 66.2456 857.151 64.786 856.477 63.7754C855.579 62.4281 854.568 61.4175 853.446 60.7439C852.211 59.9579 850.639 59.1719 848.618 58.6105C845.923 57.7123 843.902 57.0386 842.442 56.4772C839.86 55.6912 837.614 54.9053 835.93 54.1193C833.797 53.2211 831.776 51.986 829.867 50.3018C827.846 48.6175 826.386 46.7088 825.263 44.3509C824.14 41.8807 823.579 38.9614 823.579 35.593C823.579 32.1123 824.253 28.9684 825.712 26.0491C827.284 23.1298 829.081 20.8842 831.326 19.2C833.684 17.4035 836.267 16.1684 839.074 15.2702C841.881 14.4842 844.688 14.0351 847.719 14.0351C851.874 14.0351 855.579 14.7088 858.835 15.9439C862.204 17.179 865.347 19.5368 868.379 23.0176L870.4 25.1509L865.909 28.6316C864.449 29.7544 862.765 30.3158 860.856 30.3158C858.947 30.3158 857.263 29.6421 855.804 28.407C853.783 26.7228 851.088 25.8246 847.719 25.8246C846.147 25.8246 844.688 26.0491 843.34 26.386C841.881 26.8351 840.646 27.3965 839.635 28.0702C838.737 28.7439 837.951 29.6421 837.277 30.8772C836.716 31.8877 836.491 33.2351 836.491 34.807C836.491 37.0526 837.053 38.7368 838.063 39.7474C839.523 41.207 841.319 42.3298 843.453 43.2281C845.698 44.1263 848.281 45.0246 851.312 45.9228C854.119 46.7088 857.039 47.9439 860.07 49.6281C863.102 51.3123 865.46 53.3333 867.256 55.9158C869.277 58.7228 870.288 62.4281 870.288 66.9193C870.288 70.5123 869.614 73.6561 868.154 76.3509C866.583 79.0456 864.674 81.4035 862.428 83.2C860.183 84.8842 857.6 86.3439 854.568 87.3544C851.874 88.3649 848.955 88.814 845.923 88.814ZM864.449 26.4983C862.204 28.1825 859.958 28.0702 857.937 26.2737C855.354 24.1404 851.986 23.0176 847.944 23.0176C846.035 23.0176 844.351 23.2421 842.779 23.6912C840.87 24.2526 839.411 24.9263 838.288 25.8246C836.94 26.8351 835.93 28.0702 835.144 29.6421C834.246 31.214 833.797 33.0105 833.797 34.9193C833.797 37.8386 834.695 40.1965 836.379 41.8807C837.951 43.5649 839.972 44.9123 842.555 45.9228C844.912 46.9333 847.607 47.9439 850.751 48.7298C853.446 49.5158 856.14 50.6386 858.947 52.0983C861.418 53.4456 863.439 55.3544 865.235 57.7123C866.919 59.9579 867.705 63.1018 867.705 67.0316C867.705 70.0632 867.032 72.7579 865.797 75.1158C864.449 77.586 862.765 79.607 860.744 81.179C858.723 82.7509 856.365 83.986 853.783 84.8842C851.312 85.7825 848.73 86.2316 846.035 86.2316C842.105 86.2316 838.288 85.4456 834.47 83.986C830.99 82.5263 827.846 80.0561 825.263 76.5754L827.397 75.0035C828.407 74.3298 829.53 73.993 830.765 74.1053C832 74.2175 833.123 74.779 834.021 75.5649C834.919 76.3509 836.042 77.1368 837.39 77.9228C839.86 79.3825 842.891 80.0561 846.372 80.0561C848.168 80.0561 849.853 79.8316 851.425 79.3825C852.884 78.9333 854.344 78.1474 855.916 77.0246C857.151 76.014 858.274 74.7789 859.172 73.207C860.07 71.7474 860.519 70.0632 860.519 68.1544C860.519 65.6842 860.07 63.7754 859.172 62.4281C858.161 60.8561 856.814 59.6211 855.242 58.6105C853.558 57.6 851.762 56.7018 849.853 56.0281C847.832 55.3544 845.811 54.6807 843.565 53.8947C841.095 53.1088 839.074 52.3228 837.39 51.6491C835.256 50.6386 833.46 49.5158 831.888 48.393C830.54 47.2702 829.193 45.586 828.07 43.3404C827.06 41.3193 826.611 38.8491 826.611 35.8175C826.611 32.786 827.284 30.0912 828.519 27.5088C829.642 25.2632 831.214 23.3544 833.347 21.6702C835.369 19.986 837.726 18.8632 840.197 18.1895C842.891 17.5158 845.586 17.0667 848.056 17.0667C851.761 17.0667 855.13 17.6281 858.161 18.8632C861.305 20.0983 864.112 22.1193 866.583 25.0386L864.449 26.4983ZM829.305 76.9123C831.102 78.8211 833.123 80.1684 835.481 81.179C838.737 82.5263 842.218 83.3123 845.923 83.3123C848.169 83.3123 850.414 82.8632 852.772 82.0772C855.13 81.2912 857.151 80.1684 858.947 78.8211C860.632 77.4737 862.091 75.7895 863.214 73.7684C864.225 71.8596 864.786 69.614 864.786 67.0316C864.786 63.6632 864.112 61.0807 862.765 59.2842C861.53 57.4877 859.733 55.9158 857.375 54.5684C855.242 53.3333 852.66 52.3228 849.965 51.5368C846.821 50.6386 843.902 49.6281 841.432 48.5053C838.625 47.2702 836.267 45.6982 834.358 43.7895C832.112 41.5439 830.99 38.5123 830.99 34.807C830.99 32.3368 831.551 30.0912 832.562 28.1825C833.572 26.1614 834.919 24.5895 836.491 23.4667C837.839 22.4561 839.747 21.5579 841.993 20.8842C844.014 20.3228 845.923 20.0983 847.832 20.0983C852.435 20.0983 856.365 21.4456 859.509 24.0281C860.295 24.814 861.193 24.9263 862.091 24.4772C860.407 22.9053 858.611 21.8947 856.926 21.2211C854.344 20.2105 851.312 19.6491 847.832 19.6491C845.361 19.6491 843.004 19.986 840.758 20.6597C838.625 21.2211 836.604 22.2316 834.807 23.6912C833.235 24.9263 831.888 26.6105 830.877 28.6316C829.867 30.6526 829.418 32.8983 829.418 35.593C829.418 38.4 829.755 40.5333 830.54 41.993C831.326 43.6772 832.337 45.0246 833.572 46.0351C834.807 47.0456 836.379 48.0561 838.4 48.9544C840.646 49.8526 842.667 50.6386 844.351 51.2C844.912 51.3123 845.586 51.5368 846.372 51.7614C847.158 51.986 847.944 52.3228 848.618 52.5474C849.291 52.7719 849.965 52.9965 850.526 53.2211C852.66 54.007 854.681 55.0175 856.59 56.1404C858.386 57.2632 859.958 58.8351 861.193 60.8561C862.428 62.7649 863.102 65.2351 863.102 68.1544C863.102 70.5123 862.54 72.6456 861.418 74.6667C860.183 76.6877 858.947 78.1474 857.488 79.2702C855.804 80.6175 854.007 81.5158 852.098 82.0772C849.965 82.7509 848.056 83.0877 846.26 83.0877C842.442 83.0877 838.962 82.1895 835.93 80.5053C834.358 79.607 833.123 78.7088 832 77.586C831.214 76.4632 830.316 76.3509 829.305 76.9123Z" fill="white"/>
<path opacity="0.75" d="M92.8561 17.0667L53.1088 68.4912L71.8596 88.2526C72.1965 88.1403 72.5333 88.028 72.7579 87.8035L102.625 62.5403C104.533 60.8561 105.319 58.1614 104.646 55.6912L92.8561 17.0667Z" fill="white"/>
<path d="M53.1088 68.4912L34.2456 88.2526C34.5824 88.3649 35.0316 88.4772 35.3684 88.4772H70.8491C71.186 88.4772 71.6351 88.3649 71.9719 88.2526L53.1088 68.4912Z" fill="white"/>
<path opacity="0.75" d="M13.3614 17.0667L53.1088 68.4912L34.2456 88.2526C33.9088 88.1403 33.572 88.028 33.3474 87.8035L3.48073 62.5403C1.57196 60.8561 0.785996 58.1614 1.45968 55.6912L13.3614 17.0667Z" fill="white"/>
<path d="M88.2527 2.24561C87.6913 0.561402 85.8948 -0.336844 84.2106 0.112279C83.5369 0.33684 82.9755 0.785963 82.5264 1.34737L71.6351 16.9544H53.1088H34.5825L23.6913 1.34737C23.2422 0.785963 22.6807 0.33684 22.0071 0.112279C20.3229 -0.336844 18.5264 0.561402 17.965 2.24561L13.3615 17.0667L53.1088 68.4912L92.8562 17.0667L88.2527 2.24561Z" fill="white"/>
</g>
<defs>
<clipPath id="clip0">
<rect width="870.4" height="88.814" fill="white"/>
</clipPath>
</defs>
</svg>
